<?xml version="1.0" encoding="UTF-8" standalone="no"?>
<svg
   xmlns:dc="http://purl.org/dc/elements/1.1/"
   xmlns:cc="http://creativecommons.org/ns#"
   xmlns:rdf="http://www.w3.org/1999/02/22-rdf-syntax-ns#"
   xmlns:svg="http://www.w3.org/2000/svg"
   xmlns="http://www.w3.org/2000/svg"
   xmlns:sodipodi="http://sodipodi.sourceforge.net/DTD/sodipodi-0.dtd"
   xmlns:inkscape="http://www.inkscape.org/namespaces/inkscape"
   viewBox="0 -256 1024 1024"
   id="svg2989"
   version="1.1"
   inkscape:version="0.92.4 (5da689c313, 2019-01-14)"
   width="1024"
   height="1024"
   sodipodi:docname="icon.svg">
  <metadata
     id="metadata2999">
    <rdf:RDF>
      <cc:Work
         rdf:about="">
        <dc:format>image/svg+xml</dc:format>
        <dc:type
           rdf:resource="http://purl.org/dc/dcmitype/StillImage" />
        <dc:title />
      </cc:Work>
    </rdf:RDF>
  </metadata>
  <defs
     id="defs2997" />
  <sodipodi:namedview
     pagecolor="#ffffff"
     bordercolor="#666666"
     borderopacity="1"
     objecttolerance="10"
     gridtolerance="10"
     guidetolerance="10"
     inkscape:pageopacity="0"
     inkscape:pageshadow="2"
     inkscape:window-width="3840"
     inkscape:window-height="2031"
     id="namedview2995"
     showgrid="false"
     inkscape:zoom="0.90509668"
     inkscape:cx="443.67683"
     inkscape:cy="325.23485"
     inkscape:window-x="0"
     inkscape:window-y="55"
     inkscape:window-maximized="1"
     inkscape:current-layer="g2991"
     units="px"
     inkscape:pagecheckerboard="false" />
  <g
     transform="matrix(1,0,0,-1,83.525424,1313.0508)"
     id="g2991">
    <rect
       style="fill:#000000;fill-opacity:1;stroke:#80c0ff;stroke-width:9.88733768;stroke-miterlimit:4;stroke-dasharray:none;stroke-opacity:1"
       id="rect820"
       width="1014.1127"
       height="758.11267"
       x="-78.581757"
       y="-1436.1071"
       transform="scale(1,-1)" />
    <text
       xml:space="preserve"
       style="font-style:normal;font-weight:normal;font-size:40px;line-height:1.25;font-family:sans-serif;letter-spacing:0px;word-spacing:0px;fill:#000000;fill-opacity:1;stroke:none"
       x="-55.04105"
       y="-1200.092"
       id="text818"
       transform="scale(1,-1)"><tspan
         sodipodi:role="line"
         id="tspan816"
         x="-55.04105"
         y="-1200.092"
         style="font-style:normal;font-variant:normal;font-weight:bold;font-stretch:normal;font-size:240px;font-family:'Liberation Sans';-inkscape-font-specification:'Liberation Sans Bold';fill:#ffffff;fill-opacity:1">24:60:60</tspan></text>
    <path
       d="m 432.2338,745.7989 q 0,3.75923 -3.75921,3.75923 -13.86211,0 -23.84753,9.98542 -9.98542,9.98541 -9.98542,23.84753 0,3.75922 -3.75921,3.75922 -3.75922,0 -3.75922,-3.75922 0,-17.15145 12.09998,-29.25141 12.09997,-12.1 29.2514,-12.1 3.75921,0 3.75921,3.75923 z m -156.24241,67.66589 h 304.96638 q -38.53196,42.52611 -57.9154,96.68233 -19.38348,54.15618 -19.38348,113.83378 0,60.1474 -75.1843,60.1474 -75.18432,0 -75.18432,-60.1474 0,-59.6776 -19.38348,-113.83378 -19.38344,-54.15622 -57.9154,-96.68233 z m 347.96243,0 q 0,-12.21746 -8.92818,-21.14559 -8.92812,-8.92812 -21.14555,-8.92812 H 488.62203 q 0,-24.90483 -17.62132,-42.52616 -17.62132,-17.62129 -42.52612,-17.62129 -24.90481,0 -42.52613,17.62129 -17.62132,17.62133 -17.62132,42.52616 H 263.06907 q -12.21743,0 -21.1456,8.92812 -8.92813,8.92813 -8.92813,21.14559 44.6407,37.8271 67.43093,93.393 22.79023,55.56595 22.79023,117.12311 0,38.7668 22.55532,61.5572 22.55532,22.7901 62.02708,27.4892 -1.87961,4.2291 -1.87961,8.6932 0,9.3981 6.57862,15.9767 6.57864,6.5786 15.97668,6.5786 9.39803,0 15.97666,-6.5786 6.57863,-6.5786 6.57863,-15.9767 0,-4.4641 -1.87961,-8.6932 39.47176,-4.6991 62.02707,-27.4892 22.55527,-22.7904 22.55527,-61.5572 0,-61.55716 22.79028,-117.12311 22.79024,-55.5659 67.43093,-93.393 z"
       id="path2993"
       inkscape:connector-curvature="0"
       style="fill:#ebf5ff;fill-opacity:1;stroke-width:0.23495097" />
  </g>
</svg>
