<?xml version="1.0" encoding="UTF-8" standalone="no"?>
<svg
   xmlns:dc="http://purl.org/dc/elements/1.1/"
   xmlns:cc="http://creativecommons.org/ns#"
   xmlns:rdf="http://www.w3.org/1999/02/22-rdf-syntax-ns#"
   xmlns:svg="http://www.w3.org/2000/svg"
   xmlns="http://www.w3.org/2000/svg"
   xmlns:sodipodi="http://sodipodi.sourceforge.net/DTD/sodipodi-0.dtd"
   xmlns:inkscape="http://www.inkscape.org/namespaces/inkscape"
   viewBox="0 -256 1024 1024"
   id="svg2989"
   version="1.1"
   inkscape:version="0.92.5 (2060ec1f9f, 2020-04-08)"
   width="1024"
   height="1024"
   sodipodi:docname="icon.svg">
  <metadata
     id="metadata2999">
    <rdf:RDF>
      <cc:Work
         rdf:about="">
        <dc:format>image/svg+xml</dc:format>
        <dc:type
           rdf:resource="http://purl.org/dc/dcmitype/StillImage" />
        <dc:title />
      </cc:Work>
    </rdf:RDF>
  </metadata>
  <defs
     id="defs2997" />
  <sodipodi:namedview
     pagecolor="#ffffff"
     bordercolor="#666666"
     borderopacity="1"
     objecttolerance="10"
     gridtolerance="10"
     guidetolerance="10"
     inkscape:pageopacity="0"
     inkscape:pageshadow="2"
     inkscape:window-width="3696"
     inkscape:window-height="2032"
     id="namedview2995"
     showgrid="false"
     inkscape:zoom="0.90509668"
     inkscape:cx="283.47295"
     inkscape:cy="325.23485"
     inkscape:window-x="144"
     inkscape:window-y="54"
     inkscape:window-maximized="1"
     inkscape:current-layer="g2991"
     units="px"
     inkscape:pagecheckerboard="false" />
  <g
     transform="matrix(1,0,0,-1,83.525424,1313.0508)"
     id="g2991">
    <rect
       style="fill:#000000;fill-opacity:1;stroke:#80c0ff;stroke-width:9.88733768;stroke-miterlimit:4;stroke-dasharray:none;stroke-opacity:1"
       id="rect820"
       width="1014.1127"
       height="758.11267"
       x="-78.581757"
       y="-1436.1071"
       transform="scale(1,-1)" />
    <g
       aria-label="24:60:60"
       transform="scale(1,-1)"
       style="font-style:normal;font-weight:normal;font-size:40px;line-height:1.25;font-family:sans-serif;letter-spacing:0px;word-spacing:0px;fill:#000000;fill-opacity:1;stroke:none"
       id="text818">
      <path
         d="m -46.720737,-1200.092 v -22.8516 q 6.445312,-14.1797 18.28125,-27.6563 11.953125,-13.4765 29.9999995,-28.125 17.3437505,-14.0625 24.2578125,-23.2031 7.03125,-9.1406 7.03125,-17.9297 0,-21.5625 -21.679687,-21.5625 -10.54687546,0 -16.1718755,5.7422 -5.5078125,5.625 -7.1484375,16.9922 l -33.164062,-1.875 q 2.8125,-22.9687 17.109375,-35.0391 14.414062,-12.0703 39.140625,-12.0703 26.71875,0 41.015625,12.1875 14.296875,12.1875 14.296875,34.2188 0,11.6015 -4.570313,20.9765 -4.570312,9.375 -11.71875,17.3438 -7.148437,7.8516 -15.9375,14.7656 -8.671875,6.9141 -16.875,13.4766 -8.203125,6.5625 -15,13.2422 -6.6796875,6.6797 -9.9609375,14.2968 H 68.826138 v 27.0704 z"
         style="font-style:normal;font-variant:normal;font-weight:bold;font-stretch:normal;font-size:240px;font-family:'Liberation Sans';-inkscape-font-specification:'Liberation Sans Bold';fill:#ffffff;fill-opacity:1"
         id="path3714" />
      <path
         d="m 188.59176,-1233.7249 v 33.6329 h -31.40625 v -33.6329 H 82.068325 v -24.7265 l 69.726565,-106.7578 h 36.79687 v 106.9922 h 22.03125 v 24.4921 z m -31.40625,-78.5156 q 0,-6.3281 0.35157,-13.7109 0.46875,-7.3828 0.70312,-9.4922 -3.04687,6.5625 -11.01562,18.9844 l -38.32032,58.2422 h 48.28125 z"
         style="font-style:normal;font-variant:normal;font-weight:bold;font-stretch:normal;font-size:240px;font-family:'Liberation Sans';-inkscape-font-specification:'Liberation Sans Bold';fill:#ffffff;fill-opacity:1"
         id="path3716" />
      <path
         d="m 234.99801,-1288.217 v -33.0469 h 33.75 v 33.0469 z m 0,88.125 v -32.9297 h 33.75 v 32.9297 z"
         style="font-style:normal;font-variant:normal;font-weight:bold;font-stretch:normal;font-size:240px;font-family:'Liberation Sans';-inkscape-font-specification:'Liberation Sans Bold';fill:#ffffff;fill-opacity:1"
         id="path3718" />
      <path
         d="m 416.63864,-1254.1155 q 0,26.3672 -14.76563,41.3672 -14.76562,15 -40.78125,15 -29.17968,0 -44.88281,-20.3906 -15.58594,-20.5078 -15.58594,-60.7031 0,-44.1797 15.82032,-66.4454 15.9375,-22.3828 45.46875,-22.3828 20.97656,0 33.04687,9.2578 12.1875,9.2579 17.22656,28.711 l -31.05468,4.3359 q -4.45313,-16.289 -19.92188,-16.289 -13.24219,0 -20.85937,13.2421 -7.5,13.2422 -7.5,40.1954 5.27343,-8.7891 14.64843,-13.4766 9.375,-4.6875 21.21094,-4.6875 22.14844,0 35.03906,14.0625 12.89063,14.0625 12.89063,38.2031 z m -33.04688,0.9375 q 0,-14.0625 -6.5625,-21.4453 -6.44531,-7.5 -17.8125,-7.5 -10.89843,0 -17.46093,7.0313 -6.5625,6.914 -6.5625,18.3984 0,14.4141 6.79687,23.9062 6.91406,9.375 18.04688,9.375 11.13281,0 17.34375,-7.8515 6.21093,-7.9688 6.21093,-21.9141 z"
         style="font-style:normal;font-variant:normal;font-weight:bold;font-stretch:normal;font-size:240px;font-family:'Liberation Sans';-inkscape-font-specification:'Liberation Sans Bold';fill:#ffffff;fill-opacity:1"
         id="path3720" />
      <path
         d="m 548.94333,-1282.7092 q 0,41.8359 -14.41407,63.3984 -14.29687,21.5625 -43.00781,21.5625 -56.71875,0 -56.71875,-84.9609 0,-29.6485 6.21094,-48.3985 6.21094,-18.75 18.63281,-27.6562 12.42188,-8.9063 32.8125,-8.9063 29.29688,0 42.89063,21.211 13.59375,21.2109 13.59375,63.75 z m -33.04688,0 q 0,-22.8516 -2.22656,-35.5078 -2.22656,-12.6563 -7.14844,-18.1641 -4.92187,-5.5078 -14.29687,-5.5078 -9.96094,0 -15.11719,5.625 -5.03906,5.5078 -7.26563,18.164 -2.10937,12.5391 -2.10937,35.3907 0,22.6172 2.22656,35.3906 2.34375,12.6562 7.26563,18.1641 5.03906,5.5078 14.53125,5.5078 9.375,0 14.41406,-5.7422 5.15625,-5.8594 7.38281,-18.6328 2.34375,-12.7735 2.34375,-34.6875 z"
         style="font-style:normal;font-variant:normal;font-weight:bold;font-stretch:normal;font-size:240px;font-family:'Liberation Sans';-inkscape-font-specification:'Liberation Sans Bold';fill:#ffffff;fill-opacity:1"
         id="path3722" />
      <path
         d="m 581.87301,-1288.217 v -33.0469 h 33.75 v 33.0469 z m 0,88.125 v -32.9297 h 33.75 v 32.9297 z"
         style="font-style:normal;font-variant:normal;font-weight:bold;font-stretch:normal;font-size:240px;font-family:'Liberation Sans';-inkscape-font-specification:'Liberation Sans Bold';fill:#ffffff;fill-opacity:1"
         id="path3724" />
      <path
         d="m 763.51364,-1254.1155 q 0,26.3672 -14.76563,41.3672 -14.76562,15 -40.78125,15 -29.17968,0 -44.88281,-20.3906 -15.58594,-20.5078 -15.58594,-60.7031 0,-44.1797 15.82032,-66.4454 15.9375,-22.3828 45.46875,-22.3828 20.97656,0 33.04687,9.2578 12.1875,9.2579 17.22656,28.711 l -31.05468,4.3359 q -4.45313,-16.289 -19.92188,-16.289 -13.24219,0 -20.85937,13.2421 -7.5,13.2422 -7.5,40.1954 5.27343,-8.7891 14.64843,-13.4766 9.375,-4.6875 21.21094,-4.6875 22.14844,0 35.03906,14.0625 12.89063,14.0625 12.89063,38.2031 z m -33.04688,0.9375 q 0,-14.0625 -6.5625,-21.4453 -6.44531,-7.5 -17.8125,-7.5 -10.89843,0 -17.46093,7.0313 -6.5625,6.914 -6.5625,18.3984 0,14.4141 6.79687,23.9062 6.91406,9.375 18.04688,9.375 11.13281,0 17.34375,-7.8515 6.21093,-7.9688 6.21093,-21.9141 z"
         style="font-style:normal;font-variant:normal;font-weight:bold;font-stretch:normal;font-size:240px;font-family:'Liberation Sans';-inkscape-font-specification:'Liberation Sans Bold';fill:#ffffff;fill-opacity:1"
         id="path3726" />
      <path
         d="m 895.81833,-1282.7092 q 0,41.8359 -14.41407,63.3984 -14.29687,21.5625 -43.00781,21.5625 -56.71875,0 -56.71875,-84.9609 0,-29.6485 6.21094,-48.3985 6.21094,-18.75 18.63281,-27.6562 12.42188,-8.9063 32.8125,-8.9063 29.29688,0 42.89063,21.211 13.59375,21.2109 13.59375,63.75 z m -33.04688,0 q 0,-22.8516 -2.22656,-35.5078 -2.22656,-12.6563 -7.14844,-18.1641 -4.92187,-5.5078 -14.29687,-5.5078 -9.96094,0 -15.11719,5.625 -5.03906,5.5078 -7.26563,18.164 -2.10937,12.5391 -2.10937,35.3907 0,22.6172 2.22656,35.3906 2.34375,12.6562 7.26563,18.1641 5.03906,5.5078 14.53125,5.5078 9.375,0 14.41406,-5.7422 5.15625,-5.8594 7.38281,-18.6328 2.34375,-12.7735 2.34375,-34.6875 z"
         style="font-style:normal;font-variant:normal;font-weight:bold;font-stretch:normal;font-size:240px;font-family:'Liberation Sans';-inkscape-font-specification:'Liberation Sans Bold';fill:#ffffff;fill-opacity:1"
         id="path3728" />
    </g>
    <path
       d="m 432.2338,745.7989 q 0,3.75923 -3.75921,3.75923 -13.86211,0 -23.84753,9.98542 -9.98542,9.98541 -9.98542,23.84753 0,3.75922 -3.75921,3.75922 -3.75922,0 -3.75922,-3.75922 0,-17.15145 12.09998,-29.25141 12.09997,-12.1 29.2514,-12.1 3.75921,0 3.75921,3.75923 z m -156.24241,67.66589 h 304.96638 q -38.53196,42.52611 -57.9154,96.68233 -19.38348,54.15618 -19.38348,113.83378 0,60.1474 -75.1843,60.1474 -75.18432,0 -75.18432,-60.1474 0,-59.6776 -19.38348,-113.83378 -19.38344,-54.15622 -57.9154,-96.68233 z m 347.96243,0 q 0,-12.21746 -8.92818,-21.14559 -8.92812,-8.92812 -21.14555,-8.92812 H 488.62203 q 0,-24.90483 -17.62132,-42.52616 -17.62132,-17.62129 -42.52612,-17.62129 -24.90481,0 -42.52613,17.62129 -17.62132,17.62133 -17.62132,42.52616 H 263.06907 q -12.21743,0 -21.1456,8.92812 -8.92813,8.92813 -8.92813,21.14559 44.6407,37.8271 67.43093,93.393 22.79023,55.56595 22.79023,117.12311 0,38.7668 22.55532,61.5572 22.55532,22.7901 62.02708,27.4892 -1.87961,4.2291 -1.87961,8.6932 0,9.3981 6.57862,15.9767 6.57864,6.5786 15.97668,6.5786 9.39803,0 15.97666,-6.5786 6.57863,-6.5786 6.57863,-15.9767 0,-4.4641 -1.87961,-8.6932 39.47176,-4.6991 62.02707,-27.4892 22.55527,-22.7904 22.55527,-61.5572 0,-61.55716 22.79028,-117.12311 22.79024,-55.5659 67.43093,-93.393 z"
       id="path2993"
       inkscape:connector-curvature="0"
       style="fill:#ebf5ff;fill-opacity:1;stroke-width:0.23495097" />
  </g>
</svg>
